<svg xmlns="http://www.w3.org/2000/svg" viewBox="0 0 360.3 42.77"><defs><style>.cls-1{fill:#fff;}</style></defs><g id="Layer_2" data-name="Layer 2"><g id="Layer_1-2" data-name="Layer 1"><path class="cls-1" d="M45.46,2.17V42.31H35.68V18.24l-9,24.07H18.81l-9-24.13V42.31H0V2.17H11.55L22.81,30,34,2.17Z"/><path class="cls-1" d="M55.2,17.67A13.87,13.87,0,0,1,60.26,12a13.27,13.27,0,0,1,7.15-2,12.35,12.35,0,0,1,5.92,1.37,10.29,10.29,0,0,1,3.92,3.6V10.41H87v31.9H77.25V37.79a10.64,10.64,0,0,1-4,3.61,12.32,12.32,0,0,1-5.92,1.37,13,13,0,0,1-7.09-2A14,14,0,0,1,55.2,35a19.2,19.2,0,0,1-1.85-8.66A19,19,0,0,1,55.2,17.67Zm20,2.91a6.9,6.9,0,0,0-9.9,0,7.93,7.93,0,0,0-2,5.75,8.09,8.09,0,0,0,2,5.8,6.81,6.81,0,0,0,9.9,0,8,8,0,0,0,2-5.77A8,8,0,0,0,75.22,20.58Z"/><path class="cls-1" d="M96.83,17.67A13.8,13.8,0,0,1,101.89,12,13.24,13.24,0,0,1,109,10a12.62,12.62,0,0,1,5.74,1.31,10.44,10.44,0,0,1,4.09,3.55V0h9.78V42.31h-9.78V37.74A10.05,10.05,0,0,1,115,41.4,12.31,12.31,0,0,1,109,42.77a13.1,13.1,0,0,1-7.15-2A14,14,0,0,1,96.83,35,19.2,19.2,0,0,1,95,26.3,19,19,0,0,1,96.83,17.67Zm20,2.91a6.88,6.88,0,0,0-9.89,0,7.89,7.89,0,0,0-2,5.75,8,8,0,0,0,2,5.8,6.79,6.79,0,0,0,9.89,0,8,8,0,0,0,2-5.77A8,8,0,0,0,116.84,20.58Z"/><path class="cls-1" d="M161.24,14.17a17.23,17.23,0,0,1,6.48-6.69,17.89,17.89,0,0,1,9.16-2.39A18.61,18.61,0,0,1,187.43,8a16.68,16.68,0,0,1,6.4,8.24h-4.32a12.62,12.62,0,0,0-4.82-5.84,13.94,13.94,0,0,0-7.81-2.11,14.12,14.12,0,0,0-7.3,1.9,13.2,13.2,0,0,0-5.08,5.45,17.7,17.7,0,0,0-1.84,8.23,17.6,17.6,0,0,0,1.84,8.22,13.25,13.25,0,0,0,5.08,5.42,15.34,15.34,0,0,0,15.11-.18,12.54,12.54,0,0,0,4.82-5.77h4.32a16.5,16.5,0,0,1-6.42,8.16,18.8,18.8,0,0,1-10.53,2.9,17.79,17.79,0,0,1-9.16-2.4,17.29,17.29,0,0,1-6.48-6.66,19.59,19.59,0,0,1-2.37-9.69A19.75,19.75,0,0,1,161.24,14.17Z"/><path class="cls-1" d="M212.91,40.92a13.12,13.12,0,0,1-5.1-5.16,15.74,15.74,0,0,1-1.87-7.82,15.64,15.64,0,0,1,1.89-7.82A13.33,13.33,0,0,1,213,15a15.67,15.67,0,0,1,14.66,0,12.94,12.94,0,0,1,5.16,5.16,15.74,15.74,0,0,1,1.87,7.82,15.66,15.66,0,0,1-1.89,7.79,13.2,13.2,0,0,1-5.21,5.19,15.14,15.14,0,0,1-7.38,1.81A14.65,14.65,0,0,1,212.91,40.92Zm12.56-2.69a9.86,9.86,0,0,0,3.92-3.9,12.59,12.59,0,0,0,1.5-6.39,12.86,12.86,0,0,0-1.47-6.4,9.67,9.67,0,0,0-3.9-3.89,11.39,11.39,0,0,0-10.53,0,9.54,9.54,0,0,0-3.87,3.89,13.08,13.08,0,0,0-1.44,6.4,13,13,0,0,0,1.44,6.39,9.58,9.58,0,0,0,3.85,3.9,10.83,10.83,0,0,0,5.23,1.29A11,11,0,0,0,225.47,38.23Z"/><path class="cls-1" d="M259.22,16.67h-6.69V42.31h-3.69V16.67h-4v-3.1h4v-2q0-4.68,2.4-6.89c1.6-1.48,4.19-2.21,7.77-2.21V5.62q-3.58,0-5,1.36c-1,.92-1.45,2.44-1.45,4.58v2h6.69Z"/><path class="cls-1" d="M282.8,16.67h-6.68V42.31h-3.69V16.67h-4v-3.1h4v-2q0-4.68,2.4-6.89c1.59-1.48,4.18-2.21,7.76-2.21V5.62c-2.39,0-4.06.45-5,1.36s-1.44,2.44-1.44,4.58v2h6.68Z"/><path class="cls-1" d="M321,29.36H297.12a11.57,11.57,0,0,0,1.58,5.58,9.24,9.24,0,0,0,3.74,3.5,10.92,10.92,0,0,0,5.05,1.19,10.13,10.13,0,0,0,6-1.74,8.19,8.19,0,0,0,3.24-4.69h3.89a12.14,12.14,0,0,1-4.5,6.87,13.71,13.71,0,0,1-8.66,2.66,14.49,14.49,0,0,1-7.26-1.81,12.88,12.88,0,0,1-5-5.16,16.16,16.16,0,0,1-1.82-7.82,16.56,16.56,0,0,1,1.79-7.85,12.53,12.53,0,0,1,5-5.16,14.8,14.8,0,0,1,7.31-1.79,14.08,14.08,0,0,1,7.19,1.79,12.47,12.47,0,0,1,4.74,4.82,13.82,13.82,0,0,1,1.66,6.71C321.08,27.73,321,28.69,321,29.36Zm-4.92-8.48a8.74,8.74,0,0,0-3.66-3.42,11.19,11.19,0,0,0-5.05-1.16,10,10,0,0,0-7,2.64,10.5,10.5,0,0,0-3.21,7.42h20.22A10.33,10.33,0,0,0,316.05,20.88Z"/><path class="cls-1" d="M360.19,29.36H336.34a11.68,11.68,0,0,0,1.58,5.58,9.31,9.31,0,0,0,3.74,3.5,10.92,10.92,0,0,0,5,1.19,10.13,10.13,0,0,0,6-1.74A8.14,8.14,0,0,0,356,33.2h3.9a12.24,12.24,0,0,1-4.5,6.87,13.74,13.74,0,0,1-8.67,2.66,14.49,14.49,0,0,1-7.26-1.81,12.88,12.88,0,0,1-5-5.16,16.16,16.16,0,0,1-1.81-7.82,16.44,16.44,0,0,1,1.79-7.85,12.5,12.5,0,0,1,5-5.16,14.8,14.8,0,0,1,7.31-1.79,14.08,14.08,0,0,1,7.19,1.79,12.47,12.47,0,0,1,4.74,4.82,13.71,13.71,0,0,1,1.66,6.71C360.3,27.73,360.26,28.69,360.19,29.36Zm-4.92-8.48a8.62,8.62,0,0,0-3.66-3.42,11.16,11.16,0,0,0-5.05-1.16,10,10,0,0,0-7,2.64,10.5,10.5,0,0,0-3.21,7.42h20.22A10.23,10.23,0,0,0,355.27,20.88Z"/></g></g></svg>