<svg xmlns="http://www.w3.org/2000/svg" viewBox="0 0 463.69 184.65"><defs><style>.cls-1{fill:#fff;}</style></defs><g id="Layer_2" data-name="Layer 2"><g id="Layer_1-2" data-name="Layer 1"><path class="cls-1" d="M233,184.65a92.3,92.3,0,1,1,36-7.26A92.1,92.1,0,0,1,233,184.65ZM233,6.22a86.1,86.1,0,1,0,86.26,86.1A86.28,86.28,0,0,0,233,6.22Z"/><path class="cls-1" d="M280.81,73.73,267.86,60.8a.8.8,0,0,1,0-1.15l12.88-12.21A1.72,1.72,0,0,0,280.8,45c-1.47-1.55-3.41-2.72-5-2.14-1.84.7-8.78,7.25-12.28,12a.8.8,0,0,1-1.33-.07c-6-9.78-10.12-15.07-14.31-14l-.21.07a7.63,7.63,0,0,0-4.12,3.85.81.81,0,0,0,.18.87l14.08,14a.81.81,0,0,1,0,1.18c-5.32,4.62-13,10.55-13.1,13-.07,1.75,2.38,2.84,4.64,3.47a.94.94,0,0,0,1-.14l11.87-11.84a.8.8,0,0,1,1.23.11c4.43,6.56,8.87,13.76,13.31,13.12l.15,0a6.85,6.85,0,0,0,4.1-3.85A.81.81,0,0,0,280.81,73.73Z"/><path class="cls-1" d="M216.47,73.73,203.52,60.8a.8.8,0,0,1,0-1.15l12.88-12.21a1.73,1.73,0,0,0,.06-2.44c-1.48-1.55-3.42-2.72-5-2.14-1.84.7-8.78,7.25-12.28,12a.8.8,0,0,1-1.33-.07c-6-9.78-10.12-15.07-14.31-14l-.21.07a7.63,7.63,0,0,0-4.12,3.85.81.81,0,0,0,.18.87l14.08,14a.81.81,0,0,1,0,1.18c-5.32,4.62-13,10.55-13.1,13-.07,1.75,2.38,2.84,4.65,3.47a.92.92,0,0,0,.95-.14l11.87-11.84a.8.8,0,0,1,1.23.11c4.44,6.56,8.87,13.76,13.31,13.12l.15,0a6.85,6.85,0,0,0,4.1-3.85A.81.81,0,0,0,216.47,73.73Z"/><path class="cls-1" d="M305.5,109.49a2.58,2.58,0,0,1-.32-.53,41.1,41.1,0,0,0-7.87-10.61c-1.1-1.1-5.46-4.38-6.56-3.29L289,97a2.74,2.74,0,0,0-.37,3.12c2,3.89-1.27,10.72-4,15.12-13.59,14-28.11,21.66-43.27,22.77-19,1.4-39.82-7.33-62-26-1.87-3.61-4-8.93-6.64-8.93-3.4,0-8.25,6.41-8.25,9.8,0,2.74,3.67,2.59,6.87,2.44,12.06,10.52,23.91,18.41,35.24,23.46,10.53,4.69,20.89,7.06,30.85,7.06,1.52,0,3-.06,4.54-.17a65.24,65.24,0,0,0,29-9.47c8.64-5.18,17.05-12.57,25-22a3,3,0,0,1,2.46-.67c1.85.33,1.74,1.83,3.62,2.21a1.4,1.4,0,0,0,1.26-.39l2.08-2.08A2.82,2.82,0,0,0,305.5,109.49Z"/><path class="cls-1" d="M102.71,143.18a4.79,4.79,0,0,1-2.12-.29,7.2,7.2,0,0,1-3.62-4c-3-6.53-1.52-14-1.52-21V87c0-4,.09-8,.12-12,0-3.48.69-8.07-.49-11.39-.51-1.45-1.93-3.27-3.61-2.37A5.39,5.39,0,0,0,89.18,65c-.42,3.46,0,7.25,0,10.75v18c0,2.43.35,5.17-.58,7.54s-4,4.88-6.78,4.71A6.77,6.77,0,0,1,76.6,102c-1.23-2.42-.79-5.22-.77-7.84.07-6.8.19-13.6,0-20.4A4.07,4.07,0,0,0,73,70c-2-.62-3.59,2-3.61,3.68-.09,6.26,0,12.55,0,18.81v12.25c0,3.29.77,6.78-.57,9.92-1.17,2.75-4.4,5.7-7.57,5.5S56,117.32,55,114.55c-1.21-3.42-.38-7-.35-10.56.08-8.71.2-17.42,0-26.13l-.06-2.35c-.06-1.93.27-3.9,0-5.82-.26-2.2-2.14-5.38-4.6-3.53-1.43,1.08-1.68,3.61-1.86,5.23-.45,4,.14,7.87.14,11.83V93.66c0,4.8-.58,13.86-7.79,13.41s-6.38-9.91-6.38-14.7q0-13.08,0-26.18V52.78c0-5.27.44-11.51-1.91-16.39a2.7,2.7,0,0,0-1.65-1.65c-1.8-.39-3,1.81-3.42,3.18C25.88,41.87,26,46,26.26,50.13s0,8.44,0,12.62v36.6c0,4.41-.17,9.83-4.41,12.43a5.78,5.78,0,0,1-4.9.63c-2.47-.89-3.79-3.57-4.4-6.11-.93-3.87-.77-7.9-.65-11.88s.2-8,.15-12q0-3.14-.19-6.27a21.31,21.31,0,0,0-.52-5.42c-1-2.92-4.13-2.94-5.93-.73-2.67,3.27-2.27,7.77-1.64,11.65.14.87.17,2-.61,2.36a1.35,1.35,0,0,1-1.47-.3,3.49,3.49,0,0,1-.8-1.37A15.23,15.23,0,0,1,3,68.14a7.69,7.69,0,0,1,5.1-3.34c3.71-.37,5.51,3,6.24,6.11,1.57,6.63,1.09,13.49.82,20.23a90.57,90.57,0,0,0,0,10.29c.17,2.28,0,6.87,2.59,8,1.49.65,3.25-.33,4.18-1.66,1.57-2.22,1.57-5.15,1.51-7.87-.36-17.19-1.57-34.51-.81-51.7a39.21,39.21,0,0,1,1.47-10.68c.93-2.86,2.76-5.89,6.09-5.95s5.09,3.55,5.93,6.15c2,6.09,1.26,12.16,1.26,18.43V88.51c0,4.2-1.84,12,2.24,15a2.68,2.68,0,0,0,2.33.45c2.69-.87,3.24-5.85,3.38-8.18.22-3.63-.26-7.21-.26-10.83V74.28c0-2.52-.52-5.2.74-7.52C47,64.6,49.25,62,52.06,62.25c7.5.74,5.75,12.29,5.75,17.4v22.1c0,3.39-.43,7.11,0,10.46.27,2,1.67,5,4.13,4.68,4.8-.68,4.17-6.59,4.17-10V85c0-3.93-.18-7.89,0-11.8.11-3,3-6.43,6.1-6.55,2.27-.09,4.42,1.45,6.58,4.69a1.55,1.55,0,0,1,.26.89q0,11.63,0,23.26c0,2.14-.33,7,3,7.23,2.76.17,3.94-3.24,3.9-5.39,0-1.73,0-3.46,0-5.19V68.48c0-2.21,0-4.68,1-6.76s3.53-4.34,6-4.06c5.14.56,5.72,6.47,5.72,10.45v10c0,8.56.23,17.17,0,25.72s-.36,17.38.08,26.07c0,1,.1,1.9.16,2.86.13,1.94.33,4,1.47,5.56a3.29,3.29,0,0,0,1.87,1.37c1.83.42,3.41-1.39,4.07-3.15a23.54,23.54,0,0,0,1-8.2V57.57a18.6,18.6,0,0,1,1-7.21c.94-2.26,3-4.21,5.5-4.19s4.49,2,5.41,4.21a18.55,18.55,0,0,1,.92,7.16L120,107.79c0,1.88.22,4.14,1.9,5a8.54,8.54,0,0,0,2.73.45c.92.12,1.94.59,2.13,1.49.3,1.38-1.51,2.29-2.92,2.15-3-.29-5.3-2.79-6.32-5.57s-1-5.82-.9-8.78q.38-18.93.35-37.88c0-3.63,0-7.25-.25-10.87-.11-1.62-.48-3.56-2-4.15a3.06,3.06,0,0,0-3.53,1.67,8.78,8.78,0,0,0-.66,4.17l.16,68c0,4.37,0,8.83-1.3,13a11.13,11.13,0,0,1-3.09,5.2A6.43,6.43,0,0,1,102.71,143.18Z"/><path class="cls-1" d="M361,143.18a4.79,4.79,0,0,0,2.12-.29,7.2,7.2,0,0,0,3.62-4c2.95-6.53,1.52-14,1.52-21V87c0-4-.09-8-.12-12,0-3.48-.7-8.07.48-11.39.52-1.45,1.94-3.27,3.62-2.37A5.39,5.39,0,0,1,374.51,65c.42,3.46,0,7.25,0,10.75v18c0,2.43-.36,5.17.58,7.54s4,4.88,6.78,4.71a6.77,6.77,0,0,0,5.23-3.92c1.23-2.42.79-5.22.76-7.84-.06-6.8-.18-13.6,0-20.4A4.06,4.06,0,0,1,390.72,70c2-.62,3.6,2,3.62,3.68.09,6.26,0,12.55,0,18.81v12.25c0,3.29-.77,6.78.56,9.92,1.18,2.75,4.41,5.7,7.57,5.5s5.3-2.87,6.28-5.64c1.21-3.42.38-7,.35-10.56-.08-8.71-.2-17.42,0-26.13l.06-2.35c.06-1.93-.27-3.9-.05-5.82.25-2.2,2.14-5.38,4.6-3.53,1.43,1.08,1.68,3.61,1.86,5.23.44,4-.14,7.87-.14,11.83V93.66c0,4.8.57,13.86,7.79,13.41s6.38-9.91,6.38-14.7V52.78c0-5.27-.43-11.51,1.92-16.39a2.7,2.7,0,0,1,1.65-1.65c1.8-.39,3,1.81,3.42,3.18,1.26,3.95,1.09,8.12.88,12.21s0,8.44,0,12.62v36.6c0,4.41.17,9.83,4.41,12.43a5.78,5.78,0,0,0,4.9.63c2.47-.89,3.79-3.57,4.4-6.11.92-3.87.77-7.9.65-11.88s-.2-8-.15-12c0-2.09.08-4.18.19-6.27a21.31,21.31,0,0,1,.52-5.42c1-2.92,4.12-2.94,5.93-.73,2.67,3.27,2.27,7.77,1.64,11.65-.14.87-.18,2,.61,2.36a1.35,1.35,0,0,0,1.47-.3,3.49,3.49,0,0,0,.8-1.37,15.26,15.26,0,0,0-2.09-14.17,7.69,7.69,0,0,0-5.1-3.34c-3.71-.37-5.51,3-6.24,6.11-1.57,6.63-1.09,13.49-.82,20.23a90.57,90.57,0,0,1,0,10.29c-.16,2.28,0,6.87-2.59,8-1.48.65-3.24-.33-4.18-1.66-1.56-2.22-1.56-5.15-1.51-7.87.36-17.19,1.58-34.51.81-51.7a39.6,39.6,0,0,0-1.46-10.68c-.93-2.86-2.76-5.89-6.1-5.95-3.18,0-5.08,3.55-5.92,6.15-2,6.09-1.26,12.16-1.26,18.43V88.51c0,4.2,1.84,12-2.25,15a2.66,2.66,0,0,1-2.32.45c-2.7-.87-3.24-5.85-3.38-8.18-.23-3.63.26-7.21.26-10.83V74.28c0-2.52.51-5.2-.74-7.52-1.18-2.16-3.45-4.78-6.26-4.51-7.5.74-5.75,12.29-5.75,17.4v22.1c0,3.39.43,7.11,0,10.46-.27,2-1.67,5-4.13,4.68-4.8-.68-4.17-6.59-4.17-10V85c0-3.93.18-7.89,0-11.8-.1-3-3-6.43-6.1-6.55-2.26-.09-4.41,1.45-6.57,4.69a1.56,1.56,0,0,0-.27.89V95.5c0,2.14.33,7-3,7.23-2.76.17-3.94-3.24-3.91-5.39,0-1.73,0-3.46,0-5.19V68.48c0-2.21,0-4.68-1-6.76s-3.52-4.34-6-4.06c-5.14.56-5.73,6.47-5.73,10.45v10c0,8.56-.22,17.17,0,25.72s.37,17.38-.07,26.07c0,1-.1,1.9-.17,2.86-.13,1.94-.33,4-1.46,5.56a3.29,3.29,0,0,1-1.87,1.37c-1.83.42-3.42-1.39-4.07-3.15a23.3,23.3,0,0,1-1-8.2V57.57a18.6,18.6,0,0,0-1-7.21c-.94-2.26-3.06-4.21-5.5-4.19s-4.5,2-5.42,4.21a18.74,18.74,0,0,0-.92,7.16l.14,50.25c0,1.88-.22,4.14-1.91,5a8.48,8.48,0,0,1-2.72.45c-.92.12-1.94.59-2.13,1.49-.3,1.38,1.51,2.29,2.91,2.15,2.95-.29,5.31-2.79,6.32-5.57s1-5.82.91-8.78q-.37-18.93-.36-37.88c0-3.63,0-7.25.26-10.87.1-1.62.48-3.56,2-4.15a3,3,0,0,1,3.52,1.67,8.78,8.78,0,0,1,.67,4.17l-.17,68c0,4.37,0,8.83,1.3,13a11.15,11.15,0,0,0,3.1,5.2A6.4,6.4,0,0,0,361,143.18Z"/></g></g></svg>